<svg xmlns="http://www.w3.org/2000/svg" width="103" height="22" fill="none">
  <defs/>
  <path fill="#FF6C2C" d="M9.3 5.38h6.39l-1 3.62c-.14.5-.42.91-.84 1.22-.41.3-.9.46-1.44.46H9.45a2.96 2.96 0 00-2.89 2.11 2.76 2.76 0 00.51 2.53 3.09 3.09 0 002.37 1.1h1.81c.34 0 .62.12.84.39a.9.9 0 01.18.87l-1.13 4H9.16a8.27 8.27 0 01-6.58-3.1 7.8 7.8 0 01-1.44-6.9l.12-.4A8.04 8.04 0 016.6 5.82a8.53 8.53 0 012.7-.44zm3.22 16.3L18.1 1.74A2.35 2.35 0 0120.38.05h5.9a8.39 8.39 0 016.58 3.11c.75.94 1.27 2 1.55 3.2.28 1.2.25 2.44-.11 3.7l-.11.4a7.95 7.95 0 01-2.95 4.28 8.38 8.38 0 01-5.07 1.65h-5.12l1.02-3.65a2.36 2.36 0 012.29-1.65H26a2.99 2.99 0 002.88-2.14c.13-.45.14-.9.04-1.33A2.93 2.93 0 0026 5.35h-3.17l-4.12 14.69a2.3 2.3 0 01-.85 1.19c-.41.3-.88.46-1.41.46h-3.93zm35.22-10.65l.09-.3c.04-.14.01-.26-.07-.36a.44.44 0 00-.36-.15h-9.18a2.34 2.34 0 01-1.86-.88 2.22 2.22 0 01-.4-1.96l.57-2.05h12.43a4.84 4.84 0 013.71 1.76 4.44 4.44 0 01.83 3.89l-2.23 7.95a3.58 3.58 0 01-1.37 1.97c-.68.5-1.47.76-2.35.76l-9.18-.03a4.98 4.98 0 01-3.9-1.82 4.82 4.82 0 01-.9-1.9 4.28 4.28 0 01.05-2.17l.11-.4c.14-.51.36-.98.67-1.41a4.98 4.98 0 014.08-2.09h7.71l-.57 2.03a2.31 2.31 0 01-2.26 1.65h-3.44c-.32 0-.53.15-.62.46-.06.2-.02.38.11.53.13.15.3.23.5.23h5.57a.9.9 0 00.54-.16.7.7 0 00.28-.44l.06-.21 1.38-4.9zm16.44-5.65a8.33 8.33 0 016.6 3.11 7.82 7.82 0 011.55 3.22 7.4 7.4 0 01-.13 3.7L70.8 20.5c-.1.36-.3.65-.6.86-.32.22-.66.33-1.04.33H66.1c-.36 0-.64-.13-.85-.4a.92.92 0 01-.17-.87l1.7-6.14c.13-.45.14-.9.04-1.33a2.93 2.93 0 00-2.92-2.27h-3.17L58 20.5c-.09.36-.3.65-.6.86a1.8 1.8 0 01-1.06.33H53.3c-.34 0-.62-.13-.84-.4a.9.9 0 01-.18-.87l4.18-15.04h7.71zm16.64 5.15c-.23.17-.4.4-.48.66l-1.28 4.6a.74.74 0 00.15.7c.16.22.4.33.67.33h11.7l-.9 3.22a2.3 2.3 0 01-.86 1.19c-.4.3-.88.46-1.4.46H77.76a4.72 4.72 0 01-3.72-1.75 4.54 4.54 0 01-.87-1.8 3.97 3.97 0 01.07-2.08l1.72-6.14a5.97 5.97 0 012.27-3.27 6.54 6.54 0 013.89-1.27h7.54a4.84 4.84 0 013.71 1.76 4.3 4.3 0 01.8 3.9l-.5 1.83a3.52 3.52 0 01-1.37 1.96c-.69.5-1.47.75-2.33.75h-8.53l.56-2c.13-.5.4-.89.82-1.2.42-.3.9-.46 1.44-.46h3.45c.32 0 .52-.15.62-.46l.11-.4a.57.57 0 00-.11-.54.63.63 0 00-.5-.25h-5.26c-.28 0-.54.09-.76.26zM91.55 21.7l5.67-20.42c.1-.36.3-.65.61-.88.31-.23.66-.34 1.06-.34h3.02c.36 0 .65.13.86.4a.9.9 0 01.19.87L98.72 16.4c-.2.79-.54 1.51-1 2.16a7.22 7.22 0 01-3.74 2.74c-.78.27-1.59.4-2.43.4z"/>
</svg>
