<svg width="0" height="0" class="hidden">
  <symbol xmlns="http://www.w3.org/2000/svg" fill="none" viewBox="0 0 103 22" id="cPanel">
    <path fill="#FF6C2C" d="M9.3 5.38h6.39l-1 3.62c-.14.5-.42.91-.84 1.22-.41.3-.9.46-1.44.46H9.45a2.96 2.96 0 00-2.89 2.11 2.76 2.76 0 00.51 2.53 3.09 3.09 0 002.37 1.1h1.81c.34 0 .62.12.84.39a.9.9 0 01.18.87l-1.13 4H9.16a8.27 8.27 0 01-6.58-3.1 7.8 7.8 0 01-1.44-6.9l.12-.4A8.04 8.04 0 016.6 5.82a8.53 8.53 0 012.7-.44zm3.22 16.3L18.1 1.74A2.35 2.35 0 0120.38.05h5.9a8.39 8.39 0 016.58 3.11c.75.94 1.27 2 1.55 3.2.28 1.2.25 2.44-.11 3.7l-.11.4a7.95 7.95 0 01-2.95 4.28 8.38 8.38 0 01-5.07 1.65h-5.12l1.02-3.65a2.36 2.36 0 012.29-1.65H26a2.99 2.99 0 002.88-2.14c.13-.45.14-.9.04-1.33A2.93 2.93 0 0026 5.35h-3.17l-4.12 14.69a2.3 2.3 0 01-.85 1.19c-.41.3-.88.46-1.41.46h-3.93zm35.22-10.65l.09-.3a.38.38 0 00-.07-.36.44.44 0 00-.36-.15h-9.18a2.34 2.34 0 01-1.86-.88 2.22 2.22 0 01-.4-1.96l.57-2.05h12.43a4.84 4.84 0 013.71 1.76 4.44 4.44 0 01.83 3.89l-2.23 7.95a3.58 3.58 0 01-1.37 1.97c-.68.5-1.47.76-2.35.76l-9.18-.03a4.98 4.98 0 01-3.9-1.82 4.82 4.82 0 01-.9-1.9 4.28 4.28 0 01.05-2.17l.11-.4c.14-.51.36-.98.67-1.41a4.98 4.98 0 014.08-2.09h7.71l-.57 2.03a2.31 2.31 0 01-2.26 1.65h-3.44c-.32 0-.53.15-.62.46-.06.2-.02.38.11.53.13.15.3.23.5.23h5.57a.9.9 0 00.54-.16.7.7 0 00.28-.44l.06-.21 1.38-4.9zm16.44-5.65a8.33 8.33 0 016.6 3.11 7.82 7.82 0 011.55 3.22 7.4 7.4 0 01-.13 3.7l-1.4 5.09c-.1.36-.3.65-.6.86-.32.22-.66.33-1.04.33H66.1c-.36 0-.64-.13-.85-.4a.92.92 0 01-.17-.87l1.7-6.14c.13-.45.14-.9.04-1.33a2.93 2.93 0 00-2.92-2.27h-3.17L58 20.5c-.09.36-.3.65-.6.86a1.8 1.8 0 01-1.06.33H53.3c-.34 0-.62-.13-.84-.4a.9.9 0 01-.18-.87l4.18-15.04h7.71zm16.64 5.15c-.23.17-.4.4-.48.66l-1.28 4.6a.74.74 0 00.15.7c.16.22.4.33.67.33h11.7l-.9 3.22a2.3 2.3 0 01-.86 1.19c-.4.3-.88.46-1.4.46H77.76a4.72 4.72 0 01-3.72-1.75 4.54 4.54 0 01-.87-1.8 3.97 3.97 0 01.07-2.08l1.72-6.14a5.97 5.97 0 012.27-3.27 6.54 6.54 0 013.89-1.27h7.54a4.84 4.84 0 013.71 1.76 4.3 4.3 0 01.8 3.9l-.5 1.83a3.52 3.52 0 01-1.37 1.96c-.69.5-1.47.75-2.33.75h-8.53l.56-2c.13-.5.4-.89.82-1.2.42-.3.9-.46 1.44-.46h3.45c.32 0 .52-.15.62-.46l.11-.4a.57.57 0 00-.11-.54.63.63 0 00-.5-.25h-5.26c-.28 0-.54.09-.76.26zM91.55 21.7l5.67-20.42c.1-.36.3-.65.61-.88.31-.23.66-.34 1.06-.34h3.02c.36 0 .65.13.86.4a.9.9 0 01.19.87L98.72 16.4c-.2.79-.54 1.51-1 2.16a7.22 7.22 0 01-3.74 2.74c-.78.27-1.59.4-2.43.4z"></path>
  </symbol>
  <symbol xmlns="http://www.w3.org/2000/svg" fill="none" viewBox="0 0 26 21" id="quotes">
    <path fill="#111523" d="M7.67.7l4.46 3.03a19.8 19.8 0 00-4.04 11.5v5.71H.37v-4.87c0-2.85.67-5.68 2.01-8.48 1.37-2.8 3.14-5.1 5.3-6.89zM20.9.7l4.45 3.03a19.8 19.8 0 00-4.03 11.5v5.71H13.6v-4.87c0-2.85.68-5.68 2.02-8.48 1.37-2.8 3.14-5.1 5.3-6.89z"></path>
  </symbol>
  <symbol xmlns="http://www.w3.org/2000/svg" fill="none" viewBox="0 0 109 14" id="tesla">
    <g fill="#000" clip-path="url(#clip0)">
      <path d="M93.18 5.82v8.17h2.73V8.54h9.97V14h2.73V5.82H93.18zm2.42-2.65h10.52a3.76 3.76 0 002.84-2.73h-16.2a3.88 3.88 0 002.84 2.73zM84.88 13.99a3.91 3.91 0 002.42-2.65H75.02V.48h-2.76v13.5h12.62zM51.8 3.13h9.74c1.48-.4 2.7-1.5 3-2.65H49.11v7.99h12.63v2.8h-9.9a5.54 5.54 0 00-3.54 2.72h16.17V5.82H51.84l-.04-2.69zm-24 .04h10.52A3.7 3.7 0 0041.17.44H24.92a3.87 3.87 0 002.88 2.73zm0 5.33h10.52a3.7 3.7 0 002.85-2.72H24.92A3.87 3.87 0 0027.8 8.5zm0 5.49h10.52a3.7 3.7 0 002.85-2.73H24.92A3.81 3.81 0 0027.8 14zM.41.48a3.84 3.84 0 002.85 2.69H7.7l.23.07v10.71h2.77V3.25l.23-.08h4.44A3.9 3.9 0 0018.22.48V.44L.42.48z"></path>
    </g>
    <defs>
      <clipPath id="clip0">
        <path fill="#fff" d="M0 0h108.59v13.56H0z" transform="translate(.41 .44)"></path>
      </clipPath>
    </defs>
  </symbol>
  <symbol xmlns="http://www.w3.org/2000/svg" fill="none" viewBox="0 0 91 22" id="tnw">
    <path fill="#E6305B" d="M40.28 3.15A8.34 8.34 0 0034.5.86H22.6v20.83h8.16V8.67h2.6c.71 0 1.42.26 1.91.78l2.83 2.71c.49.47.82 1.15.82 1.83v7.7h8.15v-8.8c0-2.08-.87-4.06-2.39-5.52l-4.4-4.22zM82.43.86v7.7a2.4 2.4 0 01-.81 1.83l-2.83 2.71c-.5.47-1.2.78-1.9.78h-3.92a7.75 7.75 0 001.3-4.22V.86h-8.16v7.7a2.4 2.4 0 01-.81 1.83l-2.83 2.71c-.49.47-1.2.78-1.9.78h-2.62V.86H49.8v20.83h11.92c2.17 0 4.24-.83 5.76-2.29l2.72-2.6v4.9h7.84c2.17 0 4.24-.84 5.76-2.3l4.4-4.22a7.64 7.64 0 002.4-5.52V.86h-8.16zM.83 8.67h5.45V21.7h8.16V8.67h5.44V.86H.84v7.81z"></path>
  </symbol>
  <symbol xmlns="http://www.w3.org/2000/svg" fill="none" viewBox="0 0 87 30" id="weebly">
    <path fill="#1F8EED" d="M50.26 4.15a4.04 4.04 0 013.3-3.33 4.16 4.16 0 014.33 1.9c.7 1.1.62 2.43.6 3.67 2.2-.3 4.5.25 6.24 1.6.02-1.21-.07-2.43.05-3.64A4.07 4.07 0 0168.09.83 4.26 4.26 0 0172.6 2.8c.7 1.12.57 2.46.57 3.7a4.71 4.71 0 013.46.9c.96.72 1.36 1.86 1.75 2.92.38-.9.68-1.88 1.4-2.6a4.36 4.36 0 014.9-.84 3.8 3.8 0 012.31 3.18c.1 1.1-.43 2.12-.85 3.11L80.43 26.7c-.38.9-1 1.73-1.87 2.24-1.4.85-3.28.7-4.63-.14-1.13-.7-1.82-2-1.68-3.29.13-1.18.37-2.35.6-3.51a4.26 4.26 0 01-3.61 2.43 4.3 4.3 0 01-4.05-2.14 8.09 8.09 0 01-8.62 1.5 4.9 4.9 0 01-3.69.25A4.85 4.85 0 0151 22.71a11.68 11.68 0 01-9.52 1.2 9.08 9.08 0 01-3.75-2.42c-1.95 2.1-4.99 2.95-7.84 2.95a9.19 9.19 0 01-7.82-4.3c-.46 1.4-1.1 2.9-2.5 3.69a4.8 4.8 0 01-5.47-.52c-.45-.4-.75-.92-1.06-1.42-.42.8-1 1.54-1.83 1.98-1.7.92-4.05.71-5.46-.62a5.95 5.95 0 01-1.47-2.42c-1.05-2.86-2.13-5.7-3.18-8.56-.45-1.22-.72-2.64-.06-3.84C2.11 6.4 5.12 5.72 7.1 6.94c.91.53 1.5 1.44 1.83 2.4.32-.85.78-1.68 1.56-2.22a4.5 4.5 0 015.55.36c.54.51.86 1.19 1.13 1.86a4.21 4.21 0 012.34-2.66c1.77-.78 4-.23 5.2 1.23a9.15 9.15 0 016.76-1.43 9.2 9.2 0 015.72 3.59 9.02 9.02 0 0113-1.74c.03-1.4-.09-2.8.07-4.18zm2.27.82V19.8c0 .55.03 1.15.4 1.6.55.74 1.72.86 2.5.4.44-.25.6-.74.8-1.15 1.65 2.15 5.17 1.93 7.09.25 2.88-2.43 3.1-6.87 1.1-9.87a5.5 5.5 0 00-4.48-2.49 6.08 6.08 0 00-3.78 1.2c-.02-1.7.05-3.42-.03-5.12a1.78 1.78 0 00-2.14-1.6c-.96.13-1.51 1.08-1.46 1.95zm15.65-1.83c-.84.33-1.17 1.24-1.12 2.05v15.04c-.05.95.67 1.95 1.72 1.98a1.83 1.83 0 002.03-1.79c.05-4.93 0-9.87.03-14.8 0-.67.03-1.42-.44-1.97a1.92 1.92 0 00-2.22-.51zM3.03 9.68c-.17.89.26 1.74.54 2.57 1.03 2.74 2.03 5.5 3.07 8.24.31.87 1.05 1.7 2.08 1.7 1.02.14 2-.53 2.28-1.46.7-2 1.35-4.03 2.05-6.04.65 1.88 1.27 3.77 1.9 5.67.22.63.53 1.3 1.18 1.62.8.38 1.86.32 2.53-.27.48-.42.73-1.02.95-1.6 1.08-2.93 2.19-5.86 3.27-8.8.25-.65.37-1.44-.07-2.04-.77-1.08-2.83-.92-3.26.38-.82 2.42-1.54 4.88-2.34 7.3-.82-2.4-1.55-4.84-2.4-7.24-.35-1.14-1.95-1.5-2.9-.83-.45.31-.64.84-.81 1.32-.74 2.25-1.46 4.5-2.22 6.75-.76-2.35-1.49-4.72-2.25-7.07-.32-1.66-3.08-1.77-3.6-.2zm22.2.77a7.16 7.16 0 00-.88 8.93A6.47 6.47 0 0028.27 22a9.3 9.3 0 006.05-.75c.69-.36 1.4-.8 1.77-1.5.53-.98-.61-2.33-1.73-2-.88.3-1.62.86-2.5 1.15-1.3.45-2.9.29-3.97-.59-.54-.42-.76-1.07-.95-1.69 2.75-.03 5.5.03 8.26-.03a1.3 1.3 0 001.32-1.25c.17-3.22-2.54-6.4-5.92-6.74a6.55 6.55 0 00-5.37 1.85zm15.3-.57a7.11 7.11 0 00-2.41 7.58 6.33 6.33 0 003.42 4.06c2.31 1.09 5.11.82 7.37-.25.74-.37 1.52-.83 1.87-1.6.44-.99-.7-2.26-1.79-1.91-.78.26-1.45.75-2.21 1.04a4.3 4.3 0 01-4.14-.42c-.59-.42-.85-1.1-1.05-1.75 2.74-.05 5.48.02 8.22-.04a1.3 1.3 0 001.36-1.25c.17-3-2.16-5.95-5.22-6.63a6.64 6.64 0 00-5.42 1.17zm31.7-.15c-.23.55-.02 1.16.2 1.68l3.99 9.48c-.52 1.23-1.05 2.45-1.56 3.68-.2.53-.43 1.13-.2 1.68.33.84 1.42 1.18 2.27.98.78-.22 1.18-.97 1.45-1.64 2.02-4.83 4.08-9.65 6.1-14.47.37-.75.18-1.75-.63-2.15-.94-.61-2.36-.17-2.74.85-.96 2.25-1.86 4.53-2.8 6.79l-2.45-6.4c-.21-.56-.55-1.16-1.18-1.38-.9-.38-2.06.03-2.45.9zm-44.2 2.55a3.8 3.8 0 00-.91 1.86h6a3.95 3.95 0 00-.92-1.86 3 3 0 00-4.17 0zm14.55-.02c-.53.5-.75 1.2-.93 1.88h5.99c-.19-.64-.38-1.33-.88-1.83a3 3 0 00-4.18-.05zm15.9-.4c-.69.14-1.28.58-1.64 1.15a4.56 4.56 0 00.18 4.93 2.64 2.64 0 003.83.38c1.46-1.42 1.52-3.85.37-5.46a2.63 2.63 0 00-2.74-1z"></path>
  </symbol>
</svg>