<svg xmlns="http://www.w3.org/2000/svg" width="109" height="14" fill="none">
  <defs/>
  <g fill="#000" clip-path="url(#clip0)">
    <path d="M93.18 5.82v8.17h2.73V8.54h9.97V14h2.73V5.82H93.18zm2.42-2.65h10.52a3.76 3.76 0 002.84-2.73h-16.2a3.88 3.88 0 002.84 2.73zM84.88 13.99a3.91 3.91 0 002.42-2.65H75.02V.48h-2.76v13.5h12.62zM51.8 3.13h9.74c1.48-.4 2.7-1.5 3-2.65H49.11v7.99h12.63v2.8h-9.9a5.54 5.54 0 00-3.54 2.72h16.17V5.82H51.84l-.04-2.69zm-24 .04h10.52A3.7 3.7 0 0041.17.44H24.92a3.87 3.87 0 002.88 2.73zm0 5.33h10.52a3.7 3.7 0 002.85-2.72H24.92A3.87 3.87 0 0027.8 8.5zm0 5.49h10.52a3.7 3.7 0 002.85-2.73H24.92A3.81 3.81 0 0027.8 14zM.41.48a3.84 3.84 0 002.85 2.69H7.7l.23.07v10.71h2.77V3.25l.23-.08h4.44A3.9 3.9 0 0018.22.48V.44L.42.48z"/>
  </g>
  <defs>
    <clipPath id="clip0">
      <path fill="#fff" d="M0 0h108.59v13.56H0z" transform="translate(.41 .44)"/>
    </clipPath>
  </defs>
</svg>
