<svg xmlns="http://www.w3.org/2000/svg" width="91" height="22" fill="none">
  <defs/>
  <path fill="#E6305B" d="M40.28 3.15A8.34 8.34 0 0034.5.86H22.6v20.83h8.16V8.67h2.6c.71 0 1.42.26 1.91.78l2.83 2.71c.49.47.82 1.15.82 1.83v7.7h8.15v-8.8c0-2.08-.87-4.06-2.39-5.52l-4.4-4.22zM82.43.86v7.7a2.4 2.4 0 01-.81 1.83l-2.83 2.71c-.5.47-1.2.78-1.9.78h-3.92a7.75 7.75 0 001.3-4.22V.86h-8.16v7.7a2.4 2.4 0 01-.81 1.83l-2.83 2.71c-.49.47-1.2.78-1.9.78h-2.62V.86H49.8v20.83h11.92c2.17 0 4.24-.83 5.76-2.29l2.72-2.6v4.9h7.84c2.17 0 4.24-.84 5.76-2.3l4.4-4.22a7.64 7.64 0 002.4-5.52V.86h-8.16zM.83 8.67h5.45V21.7h8.16V8.67h5.44V.86H.84v7.81z"/>
</svg>
