<svg xmlns="http://www.w3.org/2000/svg" width="87" height="30" fill="none">
  <defs/>
  <path fill="#1F8EED" d="M50.26 4.15a4.04 4.04 0 013.3-3.33 4.16 4.16 0 014.33 1.9c.7 1.1.62 2.43.6 3.67 2.2-.3 4.5.25 6.24 1.6.02-1.21-.07-2.43.05-3.64A4.07 4.07 0 0168.09.83 4.26 4.26 0 0172.6 2.8c.7 1.12.57 2.46.57 3.7a4.71 4.71 0 013.46.9c.96.72 1.36 1.86 1.75 2.92.38-.9.68-1.88 1.4-2.6a4.36 4.36 0 014.9-.84 3.8 3.8 0 012.31 3.18c.1 1.1-.43 2.12-.85 3.11L80.43 26.7c-.38.9-1 1.73-1.87 2.24-1.4.85-3.28.7-4.63-.14-1.13-.7-1.82-2-1.68-3.29.13-1.18.37-2.35.6-3.51a4.26 4.26 0 01-3.61 2.43 4.3 4.3 0 01-4.05-2.14 8.09 8.09 0 01-8.62 1.5 4.9 4.9 0 01-3.69.25A4.85 4.85 0 0151 22.71a11.68 11.68 0 01-9.52 1.2 9.08 9.08 0 01-3.75-2.42c-1.95 2.1-4.99 2.95-7.84 2.95a9.19 9.19 0 01-7.82-4.3c-.46 1.4-1.1 2.9-2.5 3.69a4.8 4.8 0 01-5.47-.52c-.45-.4-.75-.92-1.06-1.42-.42.8-1 1.54-1.83 1.98-1.7.92-4.05.71-5.46-.62a5.95 5.95 0 01-1.47-2.42c-1.05-2.86-2.13-5.7-3.18-8.56-.45-1.22-.72-2.64-.06-3.84C2.11 6.4 5.12 5.72 7.1 6.94c.91.53 1.5 1.44 1.83 2.4.32-.85.78-1.68 1.56-2.22a4.5 4.5 0 015.55.36c.54.51.86 1.19 1.13 1.86a4.21 4.21 0 012.34-2.66c1.77-.78 4-.23 5.2 1.23a9.15 9.15 0 016.76-1.43 9.2 9.2 0 015.72 3.59 9.02 9.02 0 0113-1.74c.03-1.4-.09-2.8.07-4.18zm2.27.82V19.8c0 .55.03 1.15.4 1.6.55.74 1.72.86 2.5.4.44-.25.6-.74.8-1.15 1.65 2.15 5.17 1.93 7.09.25 2.88-2.43 3.1-6.87 1.1-9.87a5.5 5.5 0 00-4.48-2.49 6.08 6.08 0 00-3.78 1.2c-.02-1.7.05-3.42-.03-5.12a1.78 1.78 0 00-2.14-1.6c-.96.13-1.51 1.08-1.46 1.95zm15.65-1.83c-.84.33-1.17 1.24-1.12 2.05v15.04c-.05.95.67 1.95 1.72 1.98a1.83 1.83 0 002.03-1.79c.05-4.93 0-9.87.03-14.8 0-.67.03-1.42-.44-1.97a1.92 1.92 0 00-2.22-.51zM3.03 9.68c-.17.89.26 1.74.54 2.57 1.03 2.74 2.03 5.5 3.07 8.24.31.87 1.05 1.7 2.08 1.7 1.02.14 2-.53 2.28-1.46.7-2 1.35-4.03 2.05-6.04.65 1.88 1.27 3.77 1.9 5.67.22.63.53 1.3 1.18 1.62.8.38 1.86.32 2.53-.27.48-.42.73-1.02.95-1.6 1.08-2.93 2.19-5.86 3.27-8.8.25-.65.37-1.44-.07-2.04-.77-1.08-2.83-.92-3.26.38-.82 2.42-1.54 4.88-2.34 7.3-.82-2.4-1.55-4.84-2.4-7.24-.35-1.14-1.95-1.5-2.9-.83-.45.31-.64.84-.81 1.32-.74 2.25-1.46 4.5-2.22 6.75-.76-2.35-1.49-4.72-2.25-7.07-.32-1.66-3.08-1.77-3.6-.2zm22.2.77a7.16 7.16 0 00-.88 8.93A6.47 6.47 0 0028.27 22a9.3 9.3 0 006.05-.75c.69-.36 1.4-.8 1.77-1.5.53-.98-.61-2.33-1.73-2-.88.3-1.62.86-2.5 1.15-1.3.45-2.9.29-3.97-.59-.54-.42-.76-1.07-.95-1.69 2.75-.03 5.5.03 8.26-.03a1.3 1.3 0 001.32-1.25c.17-3.22-2.54-6.4-5.92-6.74a6.55 6.55 0 00-5.37 1.85zm15.3-.57a7.11 7.11 0 00-2.41 7.58 6.33 6.33 0 003.42 4.06c2.31 1.09 5.11.82 7.37-.25.74-.37 1.52-.83 1.87-1.6.44-.99-.7-2.26-1.79-1.91-.78.26-1.45.75-2.21 1.04a4.3 4.3 0 01-4.14-.42c-.59-.42-.85-1.1-1.05-1.75 2.74-.05 5.48.02 8.22-.04a1.3 1.3 0 001.36-1.25c.17-3-2.16-5.95-5.22-6.63a6.64 6.64 0 00-5.42 1.17zm31.7-.15c-.23.55-.02 1.16.2 1.68l3.99 9.48c-.52 1.23-1.05 2.45-1.56 3.68-.2.53-.43 1.13-.2 1.68.33.84 1.42 1.18 2.27.98.78-.22 1.18-.97 1.45-1.64 2.02-4.83 4.08-9.65 6.1-14.47.37-.75.18-1.75-.63-2.15-.94-.61-2.36-.17-2.74.85-.96 2.25-1.86 4.53-2.8 6.79l-2.45-6.4c-.21-.56-.55-1.16-1.18-1.38-.9-.38-2.06.03-2.45.9zm-44.2 2.55a3.8 3.8 0 00-.91 1.86h6a3.95 3.95 0 00-.92-1.86 3 3 0 00-4.17 0zm14.55-.02c-.53.5-.75 1.2-.93 1.88h5.99c-.19-.64-.38-1.33-.88-1.83a3 3 0 00-4.18-.05zm15.9-.4c-.69.14-1.28.58-1.64 1.15a4.56 4.56 0 00.18 4.93 2.64 2.64 0 003.83.38c1.46-1.42 1.52-3.85.37-5.46a2.63 2.63 0 00-2.74-1z"/>
</svg>
